<mxfile host="app.diagrams.net" modified="2021-07-31T09:50:56.902Z" agent="5.0 (Windows NT 10.0; Win64; x64) AppleWebKit/537.36 (KHTML, like Gecko) Chrome/83.0.4103.97 Safari/537.36" etag="93bnKhAKDkk_aLWfF3qN" version="14.9.3" type="github">
  <diagram id="C5RBs43oDa-KdzZeNtuy" name="Page-1">
    <mxGraphModel dx="981" dy="548" grid="1" gridSize="10" guides="1" tooltips="1" connect="1" arrows="1" fold="1" page="1" pageScale="1" pageWidth="827" pageHeight="1169" math="0" shadow="0">
      <root>
        <mxCell id="WIyWlLk6GJQsqaUBKTNV-0" />
        <mxCell id="WIyWlLk6GJQsqaUBKTNV-1" parent="WIyWlLk6GJQsqaUBKTNV-0" />
        <mxCell id="zJ41e9C2TkDa3uiYNcsi-6" style="edgeStyle=orthogonalEdgeStyle;rounded=0;orthogonalLoop=1;jettySize=auto;html=1;" edge="1" parent="WIyWlLk6GJQsqaUBKTNV-1" source="zJ41e9C2TkDa3uiYNcsi-4">
          <mxGeometry relative="1" as="geometry">
            <mxPoint x="100" y="260" as="targetPoint" />
          </mxGeometry>
        </mxCell>
        <mxCell id="zJ41e9C2TkDa3uiYNcsi-4" value="source1.csv" style="shape=ext;double=1;rounded=1;whiteSpace=wrap;html=1;" vertex="1" parent="WIyWlLk6GJQsqaUBKTNV-1">
          <mxGeometry x="40" y="130" width="120" height="80" as="geometry" />
        </mxCell>
        <mxCell id="zJ41e9C2TkDa3uiYNcsi-7" style="edgeStyle=orthogonalEdgeStyle;rounded=0;orthogonalLoop=1;jettySize=auto;html=1;" edge="1" parent="WIyWlLk6GJQsqaUBKTNV-1" source="zJ41e9C2TkDa3uiYNcsi-5">
          <mxGeometry relative="1" as="geometry">
            <mxPoint x="250" y="260" as="targetPoint" />
          </mxGeometry>
        </mxCell>
        <mxCell id="zJ41e9C2TkDa3uiYNcsi-5" value="&lt;span&gt;source2.csv&lt;/span&gt;" style="shape=ext;double=1;rounded=1;whiteSpace=wrap;html=1;" vertex="1" parent="WIyWlLk6GJQsqaUBKTNV-1">
          <mxGeometry x="190" y="130" width="120" height="80" as="geometry" />
        </mxCell>
        <mxCell id="zJ41e9C2TkDa3uiYNcsi-11" value="" style="edgeStyle=orthogonalEdgeStyle;rounded=0;orthogonalLoop=1;jettySize=auto;html=1;" edge="1" parent="WIyWlLk6GJQsqaUBKTNV-1" source="zJ41e9C2TkDa3uiYNcsi-8" target="zJ41e9C2TkDa3uiYNcsi-9">
          <mxGeometry relative="1" as="geometry">
            <Array as="points">
              <mxPoint x="180" y="300" />
              <mxPoint x="180" y="300" />
            </Array>
          </mxGeometry>
        </mxCell>
        <mxCell id="zJ41e9C2TkDa3uiYNcsi-8" value="Ingestion&lt;br&gt;(json)" style="shape=process;whiteSpace=wrap;html=1;backgroundOutline=1;" vertex="1" parent="WIyWlLk6GJQsqaUBKTNV-1">
          <mxGeometry x="190" y="270" width="120" height="60" as="geometry" />
        </mxCell>
        <mxCell id="zJ41e9C2TkDa3uiYNcsi-10" style="edgeStyle=orthogonalEdgeStyle;rounded=0;orthogonalLoop=1;jettySize=auto;html=1;" edge="1" parent="WIyWlLk6GJQsqaUBKTNV-1" source="zJ41e9C2TkDa3uiYNcsi-9">
          <mxGeometry relative="1" as="geometry">
            <mxPoint x="170" y="410" as="targetPoint" />
            <Array as="points">
              <mxPoint x="170" y="300" />
            </Array>
          </mxGeometry>
        </mxCell>
        <mxCell id="zJ41e9C2TkDa3uiYNcsi-9" value="Ingestion&lt;br&gt;(csv)" style="shape=process;whiteSpace=wrap;html=1;backgroundOutline=1;" vertex="1" parent="WIyWlLk6GJQsqaUBKTNV-1">
          <mxGeometry x="30" y="270" width="120" height="60" as="geometry" />
        </mxCell>
        <mxCell id="zJ41e9C2TkDa3uiYNcsi-23" style="edgeStyle=orthogonalEdgeStyle;rounded=0;orthogonalLoop=1;jettySize=auto;html=1;entryX=0;entryY=0.75;entryDx=0;entryDy=0;" edge="1" parent="WIyWlLk6GJQsqaUBKTNV-1" source="zJ41e9C2TkDa3uiYNcsi-12" target="zJ41e9C2TkDa3uiYNcsi-20">
          <mxGeometry relative="1" as="geometry" />
        </mxCell>
        <mxCell id="zJ41e9C2TkDa3uiYNcsi-24" style="edgeStyle=orthogonalEdgeStyle;rounded=0;orthogonalLoop=1;jettySize=auto;html=1;exitX=1;exitY=0.75;exitDx=0;exitDy=0;entryX=0;entryY=0.5;entryDx=0;entryDy=0;" edge="1" parent="WIyWlLk6GJQsqaUBKTNV-1" source="zJ41e9C2TkDa3uiYNcsi-12" target="zJ41e9C2TkDa3uiYNcsi-19">
          <mxGeometry relative="1" as="geometry" />
        </mxCell>
        <mxCell id="zJ41e9C2TkDa3uiYNcsi-25" style="edgeStyle=orthogonalEdgeStyle;rounded=0;orthogonalLoop=1;jettySize=auto;html=1;entryX=0;entryY=0.75;entryDx=0;entryDy=0;" edge="1" parent="WIyWlLk6GJQsqaUBKTNV-1" source="zJ41e9C2TkDa3uiYNcsi-12" target="zJ41e9C2TkDa3uiYNcsi-22">
          <mxGeometry relative="1" as="geometry" />
        </mxCell>
        <mxCell id="zJ41e9C2TkDa3uiYNcsi-26" style="edgeStyle=orthogonalEdgeStyle;rounded=0;orthogonalLoop=1;jettySize=auto;html=1;entryX=0;entryY=0.75;entryDx=0;entryDy=0;" edge="1" parent="WIyWlLk6GJQsqaUBKTNV-1" source="zJ41e9C2TkDa3uiYNcsi-12" target="zJ41e9C2TkDa3uiYNcsi-21">
          <mxGeometry relative="1" as="geometry" />
        </mxCell>
        <mxCell id="zJ41e9C2TkDa3uiYNcsi-12" value="EOD&amp;nbsp;&lt;br&gt;load" style="shape=process;whiteSpace=wrap;html=1;backgroundOutline=1;" vertex="1" parent="WIyWlLk6GJQsqaUBKTNV-1">
          <mxGeometry x="140" y="420" width="120" height="60" as="geometry" />
        </mxCell>
        <mxCell id="zJ41e9C2TkDa3uiYNcsi-35" style="edgeStyle=orthogonalEdgeStyle;rounded=0;orthogonalLoop=1;jettySize=auto;html=1;entryX=0;entryY=1;entryDx=0;entryDy=-15;entryPerimeter=0;" edge="1" parent="WIyWlLk6GJQsqaUBKTNV-1" source="zJ41e9C2TkDa3uiYNcsi-19" target="zJ41e9C2TkDa3uiYNcsi-31">
          <mxGeometry relative="1" as="geometry" />
        </mxCell>
        <mxCell id="zJ41e9C2TkDa3uiYNcsi-19" value="Accepted CSV" style="rounded=1;whiteSpace=wrap;html=1;" vertex="1" parent="WIyWlLk6GJQsqaUBKTNV-1">
          <mxGeometry x="370" y="350" width="120" height="60" as="geometry" />
        </mxCell>
        <mxCell id="zJ41e9C2TkDa3uiYNcsi-34" style="edgeStyle=orthogonalEdgeStyle;rounded=0;orthogonalLoop=1;jettySize=auto;html=1;" edge="1" parent="WIyWlLk6GJQsqaUBKTNV-1" source="zJ41e9C2TkDa3uiYNcsi-20" target="zJ41e9C2TkDa3uiYNcsi-31">
          <mxGeometry relative="1" as="geometry" />
        </mxCell>
        <mxCell id="zJ41e9C2TkDa3uiYNcsi-20" value="Accepted JSON" style="rounded=1;whiteSpace=wrap;html=1;" vertex="1" parent="WIyWlLk6GJQsqaUBKTNV-1">
          <mxGeometry x="370" y="250" width="110" height="60" as="geometry" />
        </mxCell>
        <mxCell id="zJ41e9C2TkDa3uiYNcsi-30" style="edgeStyle=orthogonalEdgeStyle;rounded=0;orthogonalLoop=1;jettySize=auto;html=1;entryX=0;entryY=0.75;entryDx=0;entryDy=0;" edge="1" parent="WIyWlLk6GJQsqaUBKTNV-1" source="zJ41e9C2TkDa3uiYNcsi-21" target="zJ41e9C2TkDa3uiYNcsi-27">
          <mxGeometry relative="1" as="geometry" />
        </mxCell>
        <mxCell id="zJ41e9C2TkDa3uiYNcsi-21" value="&lt;br&gt;&lt;br&gt;&lt;font face=&quot;helvetica&quot;&gt;Rejected CSV&lt;/font&gt;&lt;br&gt;" style="rounded=1;whiteSpace=wrap;html=1;" vertex="1" parent="WIyWlLk6GJQsqaUBKTNV-1">
          <mxGeometry x="370" y="540" width="120" height="60" as="geometry" />
        </mxCell>
        <mxCell id="zJ41e9C2TkDa3uiYNcsi-29" style="edgeStyle=orthogonalEdgeStyle;rounded=0;orthogonalLoop=1;jettySize=auto;html=1;" edge="1" parent="WIyWlLk6GJQsqaUBKTNV-1" source="zJ41e9C2TkDa3uiYNcsi-22" target="zJ41e9C2TkDa3uiYNcsi-27">
          <mxGeometry relative="1" as="geometry" />
        </mxCell>
        <mxCell id="zJ41e9C2TkDa3uiYNcsi-22" value="&lt;br&gt;&lt;br&gt;&lt;span style=&quot;color: rgb(0 , 0 , 0) ; font-family: &amp;#34;helvetica&amp;#34; ; font-size: 12px ; font-style: normal ; font-weight: 400 ; letter-spacing: normal ; text-align: center ; text-indent: 0px ; text-transform: none ; word-spacing: 0px ; background-color: rgb(248 , 249 , 250) ; display: inline ; float: none&quot;&gt;Rejected JSON&lt;/span&gt;&lt;br&gt;" style="rounded=1;whiteSpace=wrap;html=1;" vertex="1" parent="WIyWlLk6GJQsqaUBKTNV-1">
          <mxGeometry x="370" y="440" width="120" height="60" as="geometry" />
        </mxCell>
        <mxCell id="zJ41e9C2TkDa3uiYNcsi-27" value="Rejected files" style="shape=ext;double=1;rounded=1;whiteSpace=wrap;html=1;" vertex="1" parent="WIyWlLk6GJQsqaUBKTNV-1">
          <mxGeometry x="560" y="480" width="120" height="80" as="geometry" />
        </mxCell>
        <mxCell id="zJ41e9C2TkDa3uiYNcsi-36" style="edgeStyle=orthogonalEdgeStyle;rounded=0;orthogonalLoop=1;jettySize=auto;html=1;" edge="1" parent="WIyWlLk6GJQsqaUBKTNV-1" source="zJ41e9C2TkDa3uiYNcsi-31">
          <mxGeometry relative="1" as="geometry">
            <mxPoint x="690" y="270" as="targetPoint" />
          </mxGeometry>
        </mxCell>
        <mxCell id="zJ41e9C2TkDa3uiYNcsi-31" value="EOD&amp;nbsp;&lt;br&gt;Trade Quote" style="shape=cylinder3;whiteSpace=wrap;html=1;boundedLbl=1;backgroundOutline=1;size=15;" vertex="1" parent="WIyWlLk6GJQsqaUBKTNV-1">
          <mxGeometry x="550" y="290" width="60" height="80" as="geometry" />
        </mxCell>
        <mxCell id="zJ41e9C2TkDa3uiYNcsi-37" value="" style="edgeStyle=orthogonalEdgeStyle;rounded=0;orthogonalLoop=1;jettySize=auto;html=1;" edge="1" parent="WIyWlLk6GJQsqaUBKTNV-1" source="zJ41e9C2TkDa3uiYNcsi-32" target="zJ41e9C2TkDa3uiYNcsi-33">
          <mxGeometry relative="1" as="geometry" />
        </mxCell>
        <mxCell id="zJ41e9C2TkDa3uiYNcsi-32" value="Analytical&amp;nbsp;&lt;br&gt;ETL" style="shape=process;whiteSpace=wrap;html=1;backgroundOutline=1;" vertex="1" parent="WIyWlLk6GJQsqaUBKTNV-1">
          <mxGeometry x="630" y="200" width="120" height="60" as="geometry" />
        </mxCell>
        <mxCell id="zJ41e9C2TkDa3uiYNcsi-33" value="quote-&lt;br&gt;trade-&lt;br&gt;analytical-" style="shape=cylinder3;whiteSpace=wrap;html=1;boundedLbl=1;backgroundOutline=1;size=15;" vertex="1" parent="WIyWlLk6GJQsqaUBKTNV-1">
          <mxGeometry x="650" y="90" width="60" height="80" as="geometry" />
        </mxCell>
      </root>
    </mxGraphModel>
  </diagram>
</mxfile>
